<?xml version="1.0" standalone="no"?><!DOCTYPE svg PUBLIC "-//W3C//DTD SVG 1.1//EN" "http://www.w3.org/Graphics/SVG/1.1/DTD/svg11.dtd"><svg t="1650869877999" class="icon" viewBox="0 0 1024 1024" version="1.1" xmlns="http://www.w3.org/2000/svg" p-id="2087" xmlns:xlink="http://www.w3.org/1999/xlink" width="32" height="32"><defs><style type="text/css">@font-face { font-family: feedback-iconfont; src: url("//at.alicdn.com/t/font_1031158_u69w8yhxdu.woff2?t=1630033759944") format("woff2"), url("//at.alicdn.com/t/font_1031158_u69w8yhxdu.woff?t=1630033759944") format("woff"), url("//at.alicdn.com/t/font_1031158_u69w8yhxdu.ttf?t=1630033759944") format("truetype"); }
</style></defs><path d="M943.7 70.1c-16.3-8.1-32.6-8.1-40.7 0L88.4 474.6C72.2 474.6 64 490.8 64 507s8.1 32.4 16.3 32.4l195.5 121.4c16.3 8.1 32.6 8.1 48.9-8.1l431.7-388.3 16.3 8.1-391 412.4c-8.1 8.1-8.1 16.2-8.1 24.3v178c0 16.2 8.1 32.4 24.4 40.5 16.3 8.1 32.6 0 40.7-8.1l97.8-97.1L732 951.9c8.1 8.1 16.3 8.1 24.4 8.1h16.3c16.3-8.1 24.4-16.2 24.4-32.4l162.9-809c0-24.3 0-40.4-16.3-48.5z" fill="#1296db" p-id="2088"></path></svg>